<?xml version="1.0" encoding="UTF-8" standalone="no"?>
<svg
   xmlns:dc="http://purl.org/dc/elements/1.1/"
   xmlns:cc="http://creativecommons.org/ns#"
   xmlns:rdf="http://www.w3.org/1999/02/22-rdf-syntax-ns#"
   xmlns:svg="http://www.w3.org/2000/svg"
   xmlns="http://www.w3.org/2000/svg"
   xmlns:sodipodi="http://sodipodi.sourceforge.net/DTD/sodipodi-0.dtd"
   xmlns:inkscape="http://www.inkscape.org/namespaces/inkscape"
   inkscape:version="1.0 (4035a4fb49, 2020-05-01)"
   inkscape:export-ydpi="98"
   inkscape:export-xdpi="98"
   inkscape:export-filename="C:\Users\afdhal\Downloads\HiReD_LOGO - 1.png"
   height="295.17499"
   width="1017.625"
   sodipodi:docname="HiReD_LOGO - 1.svg"
   xml:space="preserve"
   viewBox="0 0 1017.625 295.17499"
   y="0px"
   x="0px"
   id="Layer_1"
   version="1.1"><metadata
   id="metadata323"><rdf:RDF><cc:Work
       rdf:about=""><dc:format>image/svg+xml</dc:format><dc:type
         rdf:resource="http://purl.org/dc/dcmitype/StillImage" /></cc:Work></rdf:RDF></metadata><defs
   id="defs321" /><sodipodi:namedview
   inkscape:current-layer="Layer_1"
   inkscape:window-maximized="1"
   inkscape:window-y="-9"
   inkscape:window-x="-9"
   inkscape:cy="99.771849"
   inkscape:cx="551.40521"
   inkscape:zoom="0.27171233"
   showgrid="false"
   id="namedview319"
   inkscape:window-height="1001"
   inkscape:window-width="1920"
   inkscape:pageshadow="2"
   inkscape:pageopacity="0"
   guidetolerance="10"
   gridtolerance="10"
   objecttolerance="10"
   borderopacity="1"
   bordercolor="#666666"
   pagecolor="#ffffff" />
<style
   id="style2"
   type="text/css">
	.st0{fill:#414042;}
	.st1{fill:#FFFFFF;}
	.st2{fill:#FFD100;}
	.st3{fill:#185A7D;}
	.st4{fill:#8F9193;}
</style>



<g
   transform="translate(-31.175,-397.85)"
   id="g316">
	<g
   id="g256">
		<g
   id="g254">
			<g
   id="g222">
				<g
   id="g216">
					<circle
   id="circle214"
   r="16.299999"
   cy="545.40002"
   cx="63.599998"
   class="st2" />
				</g>
				<g
   id="g220">
					<path
   id="path218"
   d="m 34.4,465.5 72.2,72.2 c 4.2,4.2 4.2,11.1 0,15.4 l -35.3,35.3 c -4.2,4.2 -4.2,11.1 0,15.4 l 7.7,7.7 c 4.2,4.2 11.1,4.2 15.4,0 l 43,-43 15.4,-15.4 c 4.2,-4.2 4.2,-11.1 0,-15.4 L 137.4,522.3 57.5,442.4 c -4.2,-4.2 -11.1,-4.2 -15.4,0 l -7.7,7.7 c -4.3,4.3 -4.3,11.2 0,15.4 z"
   class="st2" />
				</g>
			</g>
			<g
   id="g232">
				<g
   id="g226">
					<circle
   id="circle224"
   r="16.299999"
   cy="430.20001"
   cx="178.8"
   class="st3" />
				</g>
				<g
   id="g230">
					<path
   id="path228"
   d="m 258.7,401 -72.2,72.2 c -4.2,4.2 -11.1,4.2 -15.4,0 l -35.3,-35.3 c -4.2,-4.2 -11.1,-4.2 -15.4,0 l -7.7,7.7 c -4.2,4.2 -4.2,11.1 0,15.4 l 43,43 15.4,15.4 c 4.2,4.2 11.1,4.2 15.4,0 l 15.4,-15.4 79.9,-79.9 c 4.2,-4.2 4.2,-11.1 0,-15.4 L 274,401 c -4.2,-4.2 -11.1,-4.2 -15.3,0 z"
   class="st3" />
				</g>
			</g>
			<g
   id="g242">
				<g
   id="g236">
					<circle
   id="circle234"
   r="16.299999"
   cy="545.40002"
   cx="294"
   class="st2" />
				</g>
				<g
   id="g240">
					<path
   id="path238"
   d="M 323.2,625.3 251,553.1 c -4.2,-4.2 -4.2,-11.1 0,-15.4 l 35.3,-35.3 c 4.2,-4.2 4.2,-11.1 0,-15.4 l -7.7,-7.7 c -4.2,-4.2 -11.1,-4.2 -15.4,0 l -43,43 -15.4,15.4 c -4.2,4.2 -4.2,11.1 0,15.4 l 15.4,15.4 79.9,79.9 c 4.2,4.2 11.1,4.2 15.4,0 l 7.7,-7.7 c 4.2,-4.3 4.2,-11.2 0,-15.4 z"
   class="st2" />
				</g>
			</g>
			<g
   id="g252">
				<g
   id="g246">
					<circle
   id="circle244"
   r="16.299999"
   cy="660.59998"
   cx="178.8"
   class="st3" />
				</g>
				<g
   id="g250">
					<path
   id="path248"
   d="m 98.9,689.8 72.2,-72.2 c 4.2,-4.2 11.1,-4.2 15.4,0 l 35.3,35.3 c 4.2,4.2 11.1,4.2 15.4,0 l 7.7,-7.7 c 4.2,-4.2 4.2,-11.1 0,-15.4 l -43,-43 -15.4,-15.4 c -4.2,-4.2 -11.1,-4.2 -15.4,0 l -15.4,15.4 -79.9,79.9 c -4.2,4.2 -4.2,11.1 0,15.4 l 7.7,7.7 c 4.3,4.3 11.2,4.3 15.4,0 z"
   class="st3" />
				</g>
			</g>
		</g>
	</g>
	<g
   id="g288">
		<path
   id="path258"
   d="M 429.7,648.5 V 614 H 444 c 3.6,0 6.5,0.9 8.5,2.6 2,1.7 3,4.2 3,7.2 0,3 -1,5.4 -3.1,7.2 -2,1.8 -4.9,2.7 -8.5,2.7 h -9.3 v 14.8 z m 5,-18.8 h 8.8 c 2.4,0 4.2,-0.5 5.4,-1.5 1.2,-1 1.8,-2.5 1.8,-4.3 0,-1.8 -0.6,-3.3 -1.8,-4.3 -1.2,-1 -3,-1.5 -5.4,-1.5 h -8.8 z"
   class="st4" />
		<path
   id="path260"
   d="m 477.7,648.8 c -2.4,0 -4.5,-0.5 -6.3,-1.5 -1.8,-1 -3.2,-2.5 -4.1,-4.4 -1,-1.9 -1.5,-4.1 -1.5,-6.8 0,-2.6 0.5,-4.8 1.5,-6.7 1,-1.9 2.4,-3.4 4.1,-4.4 1.8,-1 3.9,-1.6 6.3,-1.6 2.4,0 4.5,0.5 6.3,1.6 1.8,1 3.2,2.5 4.2,4.4 1,1.9 1.5,4.1 1.5,6.7 0,2.6 -0.5,4.9 -1.5,6.8 -1,1.9 -2.4,3.4 -4.2,4.4 -1.8,1 -3.9,1.5 -6.3,1.5 z m 0,-3.9 c 2.2,0 3.9,-0.7 5.1,-2.2 1.2,-1.5 1.8,-3.7 1.8,-6.6 0,-2.8 -0.6,-5 -1.8,-6.5 -1.2,-1.5 -2.9,-2.3 -5.1,-2.3 -2.2,0 -3.9,0.8 -5.2,2.3 -1.2,1.5 -1.9,3.7 -1.9,6.5 0,2.9 0.6,5.1 1.8,6.6 1.3,1.5 3.1,2.2 5.3,2.2 z"
   class="st4" />
		<path
   id="path262"
   d="m 508.6,648.5 -9.3,-24.4 h 5.1 l 7.2,20.3 h -1.2 l 7.4,-20.3 h 3.9 l 7.3,20.3 h -1.2 L 535,624 h 4.8 l -9.3,24.4 H 526 l -7.8,-20.9 h 2.5 l -7.7,20.9 h -4.4 z"
   class="st4" />
		<path
   id="path264"
   d="m 571.4,645.7 c -1.1,1 -2.5,1.7 -4.2,2.3 -1.7,0.6 -3.4,0.8 -5.1,0.8 -2.6,0 -4.8,-0.5 -6.7,-1.5 -1.9,-1 -3.3,-2.5 -4.3,-4.4 -1,-1.9 -1.5,-4.2 -1.5,-6.8 0,-2.5 0.5,-4.7 1.5,-6.6 1,-1.9 2.3,-3.4 4.1,-4.5 1.7,-1.1 3.8,-1.6 6.1,-1.6 2.2,0 4.1,0.5 5.7,1.5 1.6,1 2.8,2.3 3.7,4.1 0.9,1.8 1.3,3.9 1.3,6.5 v 0.8 h -18 v -2.9 h 15 l -1.4,1.7 c 0,-2.6 -0.5,-4.6 -1.6,-6 -1.1,-1.4 -2.6,-2.1 -4.7,-2.1 -2.2,0 -3.9,0.8 -5.1,2.3 -1.2,1.5 -1.8,3.7 -1.8,6.4 0,3.1 0.7,5.4 2,6.9 1.3,1.5 3.3,2.3 5.8,2.3 1.4,0 2.7,-0.2 4,-0.7 1.3,-0.5 2.5,-1.1 3.7,-2.1 z"
   class="st4" />
		<path
   id="path266"
   d="M 584.6,648.5 V 631 c 0,-1.1 0,-2.3 -0.1,-3.4 0,-1.2 -0.2,-2.3 -0.3,-3.4 h 4.7 l 0.6,6.2 -0.6,-0.2 c 0.4,-2.1 1.4,-3.7 2.9,-4.8 1.5,-1.1 3.2,-1.6 5.1,-1.6 0.5,0 0.9,0 1.3,0.1 0.4,0.1 0.7,0.1 1.1,0.2 l -0.1,4.5 c -0.9,-0.3 -1.8,-0.5 -2.9,-0.5 -1.6,0 -2.9,0.3 -3.8,1 -1,0.7 -1.7,1.5 -2.2,2.6 -0.5,1.1 -0.7,2.2 -0.7,3.5 v 13.6 h -5 z"
   class="st4" />
		<path
   id="path268"
   d="m 629.3,645.7 c -1.1,1 -2.5,1.7 -4.2,2.3 -1.7,0.6 -3.4,0.8 -5.1,0.8 -2.6,0 -4.8,-0.5 -6.7,-1.5 -1.9,-1 -3.3,-2.5 -4.3,-4.4 -1,-1.9 -1.5,-4.2 -1.5,-6.8 0,-2.5 0.5,-4.7 1.5,-6.6 1,-1.9 2.3,-3.4 4.1,-4.5 1.7,-1.1 3.8,-1.6 6.1,-1.6 2.2,0 4.1,0.5 5.7,1.5 1.6,1 2.8,2.3 3.7,4.1 0.9,1.8 1.3,3.9 1.3,6.5 v 0.8 h -18 v -2.9 H 627 l -1.4,1.7 c 0,-2.6 -0.5,-4.6 -1.6,-6 -1.1,-1.4 -2.6,-2.1 -4.7,-2.1 -2.2,0 -3.9,0.8 -5.1,2.3 -1.2,1.5 -1.8,3.7 -1.8,6.4 0,3.1 0.7,5.4 2,6.9 1.3,1.5 3.3,2.3 5.8,2.3 1.4,0 2.7,-0.2 4,-0.7 1.3,-0.5 2.5,-1.1 3.7,-2.1 z"
   class="st4" />
		<path
   id="path270"
   d="m 664.9,648.5 h -4.8 v -6.4 l 0.6,0.7 c -0.5,1.9 -1.6,3.4 -3.1,4.5 -1.5,1 -3.4,1.6 -5.5,1.6 -2.1,0 -4,-0.5 -5.6,-1.6 -1.6,-1 -2.9,-2.5 -3.8,-4.5 -0.9,-1.9 -1.4,-4.2 -1.4,-6.8 0,-2.6 0.4,-4.8 1.3,-6.6 0.9,-1.9 2.1,-3.3 3.8,-4.4 1.6,-1 3.5,-1.6 5.7,-1.6 2.2,0 4,0.5 5.5,1.6 1.5,1.1 2.6,2.6 3.1,4.5 l -0.6,0.6 v -17.3 h 4.9 v 35.7 z m -11.8,-3.6 c 2.2,0 3.9,-0.8 5.1,-2.3 1.2,-1.5 1.8,-3.7 1.8,-6.5 0,-2.7 -0.6,-4.9 -1.8,-6.4 -1.2,-1.5 -2.9,-2.3 -5.1,-2.3 -2.2,0 -4,0.8 -5.2,2.3 -1.2,1.5 -1.9,3.6 -1.9,6.4 0,2.8 0.6,5 1.9,6.6 1.3,1.5 3,2.2 5.2,2.2 z"
   class="st4" />
		<path
   id="path272"
   d="m 698.8,648.5 v -35.7 h 4.9 v 17.3 l -0.5,-0.6 c 0.5,-1.9 1.6,-3.4 3.1,-4.5 1.5,-1.1 3.4,-1.6 5.5,-1.6 2.2,0 4.1,0.5 5.7,1.6 1.6,1 2.9,2.5 3.8,4.4 0.9,1.9 1.4,4.1 1.4,6.6 0,2.6 -0.5,4.8 -1.4,6.8 -0.9,1.9 -2.2,3.4 -3.8,4.5 -1.6,1 -3.5,1.6 -5.6,1.6 -2.1,0 -4,-0.5 -5.5,-1.6 -1.5,-1 -2.6,-2.5 -3.1,-4.5 l 0.5,-0.7 v 6.4 z m 11.8,-3.6 c 2.2,0 3.9,-0.8 5.1,-2.3 1.2,-1.6 1.8,-3.7 1.8,-6.6 0,-2.7 -0.6,-4.9 -1.8,-6.4 -1.2,-1.5 -2.9,-2.3 -5.1,-2.3 -2.3,0 -4,0.8 -5.2,2.3 -1.2,1.5 -1.8,3.7 -1.8,6.4 0,2.8 0.6,5 1.8,6.5 1.3,1.7 3,2.4 5.2,2.4 z"
   class="st4" />
		<path
   id="path274"
   d="M 742.7,649.9 731.6,624 h 5.1 l 8.3,20.4 z m -8.7,9.6 -1.1,-3.8 c 1.5,-0.3 2.7,-0.7 3.8,-1.2 1,-0.5 1.9,-1.1 2.5,-1.8 0.7,-0.7 1.3,-1.6 1.7,-2.8 l 1.6,-3.8 1.2,-1.7 8.4,-20.4 h 4.9 l -11.4,26.4 c -0.9,2.1 -1.9,3.7 -3.1,4.9 -1.1,1.2 -2.4,2.1 -3.9,2.8 -1.4,0.7 -2.9,1.1 -4.6,1.4 z"
   class="st4" />
		<path
   id="path276"
   d="m 789.8,648.5 h -5.1 L 800,614 h 4.2 l 15.4,34.5 h -5 l -13.1,-30.7 h 1.6 z m 1.5,-8.6 1.8,-4 H 811 l 1.8,4 z"
   class="st4" />
		<path
   id="path278"
   d="m 836.7,648.5 -10.5,-24.4 h 5.1 l 8.3,20.4 h -1.3 l 8.4,-20.4 h 4.9 L 841,648.5 Z"
   class="st4" />
		<path
   id="path280"
   d="m 862.1,613.4 h 5.7 v 5.1 h -5.7 z m 0.3,35.1 V 624 h 4.9 v 24.4 h -4.9 z"
   class="st4" />
		<path
   id="path282"
   d="m 889.8,648.8 c -4.3,0 -7.6,-1 -10.1,-3.1 l 1.5,-3.5 c 1.3,1 2.7,1.7 4.1,2.2 1.4,0.5 3,0.7 4.7,0.7 1.7,0 3,-0.3 3.8,-0.8 0.8,-0.5 1.3,-1.4 1.3,-2.4 0,-0.9 -0.3,-1.6 -0.9,-2.1 -0.6,-0.5 -1.6,-0.9 -3,-1.3 l -4.1,-1 c -2.1,-0.5 -3.8,-1.3 -4.9,-2.4 -1.1,-1.1 -1.7,-2.6 -1.7,-4.3 0,-1.5 0.4,-2.7 1.2,-3.8 0.8,-1.1 1.9,-2 3.4,-2.6 1.5,-0.6 3.1,-0.9 5.1,-0.9 1.7,0 3.4,0.3 4.9,0.8 1.5,0.5 2.9,1.3 4,2.3 l -1.5,3.4 c -1.2,-0.9 -2.4,-1.6 -3.7,-2.1 -1.2,-0.5 -2.5,-0.7 -3.8,-0.7 -1.6,0 -2.8,0.3 -3.7,0.9 -0.9,0.6 -1.3,1.4 -1.3,2.5 0,0.9 0.3,1.6 0.8,2.1 0.5,0.5 1.4,0.9 2.7,1.2 l 4.1,1 c 2.4,0.5 4.1,1.3 5.2,2.5 1.1,1.1 1.6,2.6 1.6,4.4 0,2.2 -0.9,3.9 -2.6,5.2 -1.6,1.2 -4,1.8 -7.1,1.8 z"
   class="st4" />
		<path
   id="path284"
   d="m 912.5,648.5 v -35.7 h 4.9 V 629 l -0.7,0.3 c 0.7,-1.9 1.8,-3.4 3.4,-4.3 1.6,-0.9 3.4,-1.5 5.4,-1.5 5.8,0 8.8,3.3 8.8,9.8 v 15.2 h -4.9 v -15 c 0,-2.1 -0.4,-3.6 -1.3,-4.6 -0.8,-1 -2.1,-1.5 -3.9,-1.5 -2.1,0 -3.8,0.6 -5,1.9 -1.2,1.3 -1.9,3 -1.9,5.2 v 13.9 h -4.8 z"
   class="st4" />
		<path
   id="path286"
   d="m 957.6,648.8 c -2.2,0 -4.1,-0.5 -5.7,-1.5 -1.6,-1 -2.9,-2.5 -3.8,-4.4 -0.9,-1.9 -1.3,-4.1 -1.3,-6.7 0,-2.6 0.5,-4.8 1.4,-6.7 0.9,-1.9 2.2,-3.4 3.8,-4.5 1.6,-1.1 3.5,-1.6 5.6,-1.6 2.2,0 4,0.5 5.5,1.6 1.5,1 2.6,2.5 3.1,4.5 l -0.6,0.4 V 624 h 4.8 v 24.4 h -4.8 v -6 l 0.6,0.2 c -0.5,1.9 -1.6,3.4 -3.1,4.5 -1.5,1.2 -3.3,1.7 -5.5,1.7 z m 1.2,-3.9 c 2.2,0 3.9,-0.8 5.1,-2.3 1.2,-1.5 1.8,-3.7 1.8,-6.5 0,-2.8 -0.6,-5 -1.8,-6.5 -1.2,-1.5 -2.9,-2.3 -5.1,-2.3 -2.2,0 -4,0.8 -5.2,2.4 -1.2,1.6 -1.9,3.7 -1.9,6.5 0,2.8 0.6,4.9 1.9,6.4 1.2,1.6 2.9,2.3 5.2,2.3 z"
   class="st4" />
	</g>
	<g
   id="g314">
		<g
   id="g292">
			<path
   id="path290"
   d="m 488,454.8 v 132 h -44.5 v -48.7 h -41.1 v 48.7 h -44.5 v -132 h 44.5 v 46.8 h 41.1 v -46.8 z"
   class="st0" />
		</g>
		<g
   id="g296">
			<path
   id="path294"
   d="m 503.8,453.6 c 0,-12.3 10,-21.7 25.7,-21.7 15.7,0 25.7,8.7 25.7,20.9 0,13 -10,22.4 -25.7,22.4 -15.7,0.1 -25.7,-9.3 -25.7,-21.6 z m 4.3,30 h 42.6 v 103.2 h -42.6 z"
   class="st0" />
		</g>
		<g
   id="g300">
			<path
   id="path298"
   d="m 627.5,553.6 h -12.1 v 33.2 h -44.5 v -132 h 63.6 c 36.8,0 60.2,19.2 60.2,49.8 0,19.1 -9.1,33.4 -24.9,41.5 l 27.7,40.7 H 650 Z m 4.2,-64.5 H 615.5 V 520 h 16.2 c 12.3,0 18.1,-5.8 18.1,-15.5 0,-9.5 -5.9,-15.4 -18.1,-15.4 z"
   class="st0" />
		</g>
		<g
   id="g304">
			<path
   id="path302"
   d="m 792.2,544.1 26.1,17.8 c -7.9,12.7 -21.1,21 -41.1,24.9 -37.2,7.2 -65.6,-10.5 -71.5,-40.7 -6,-30.7 14.6,-57.2 47.9,-63.7 29.4,-5.7 58.5,7.4 65.1,41.1 L 752,550.3 c 4.6,5.6 11.4,7 20.4,5.2 9.4,-1.7 14.1,-5.1 19.8,-11.4 z m -46.8,-13 31.2,-12.6 c -3.4,-5.9 -9.6,-9.1 -17.2,-7.6 -9.5,1.8 -14.9,8.5 -14,20.2 z"
   class="st0" />
		</g>
		<g
   id="g308">
			<path
   id="path306"
   d="m 834.6,454.8 h 65.1 c 44.1,0 74.5,25.1 74.5,66 0,40.9 -30.4,66 -74.5,66 h -65.1 z m 63.2,97.3 c 18.7,0 31.5,-11.1 31.5,-31.3 0,-20.2 -12.8,-31.3 -31.5,-31.3 h -18.7 v 62.6 z"
   class="st0" />
		</g>
		<g
   id="g312">
			<path
   id="path310"
   d="m 999.1,450.8 49.7,11.2 -26.1,77.6 -33.1,-7.4 z m -23.8,108.7 c 2.8,-12.3 14.8,-19.5 29.2,-16.3 14.4,3.2 22.2,14.8 19.4,27.2 -2.7,12.1 -14.9,19.9 -29.3,16.6 -14.4,-3.1 -22.1,-15.3 -19.3,-27.5 z"
   class="st0" />
		</g>
	</g>
</g>
</svg>
