<?xml version="1.0" encoding="UTF-8" standalone="no"?><!DOCTYPE svg PUBLIC "-//W3C//DTD SVG 1.1//EN" "http://www.w3.org/Graphics/SVG/1.1/DTD/svg11.dtd"><svg width="100%" height="100%" viewBox="0 0 1157 1157" version="1.1" xmlns="http://www.w3.org/2000/svg" xmlns:xlink="http://www.w3.org/1999/xlink" xml:space="preserve" style="fill-rule:evenodd;clip-rule:evenodd;stroke-linejoin:round;stroke-miterlimit:1.41421;"><g><clipPath id="_clip1"><rect x="0" y="0" width="1156.85" height="1156.85"/></clipPath><g clip-path="url(#_clip1)"><path d="M12.469,265.342l282.977,282.978c16.626,16.626 16.626,43.582 0,60.208l-138.478,138.477c-16.626,16.626 -16.626,43.582 0,60.208l30.104,30.105c16.626,16.626 43.582,16.626 60.208,0l168.582,-168.582l60.209,-60.208c16.625,-16.626 16.625,-43.582 0,-60.208l-60.209,-60.208l-313.081,-313.082c-16.625,-16.626 -43.581,-16.626 -60.207,0l-30.104,30.104c-16.626,16.626 -16.626,43.582 0,60.208" style="fill:#fff;fill-rule:nonzero;"/><path d="M623.58,172.02c-24.939,24.939 -65.373,24.939 -90.312,0c-24.939,-24.939 -24.939,-65.373 0,-90.312c24.939,-24.939 65.373,-24.939 90.312,0c24.939,24.939 24.939,65.373 0,90.312" style="fill:#fff;fill-rule:nonzero;"/><path d="M891.505,12.469l-282.977,282.978c-16.626,16.626 -43.582,16.626 -60.208,0l-138.478,-138.479c-16.626,-16.626 -43.582,-16.626 -60.208,0l-30.104,30.104c-16.626,16.626 -16.626,43.582 0,60.209l228.79,228.79c16.626,16.625 43.582,16.625 60.208,0l60.208,-60.208l313.081,-313.082c16.626,-16.626 16.626,-43.582 0,-60.208l-30.104,-30.104c-16.626,-16.625 -43.582,-16.625 -60.208,0" style="fill:#fff;fill-rule:nonzero;"/><path d="M984.827,623.579c-24.939,-24.939 -24.939,-65.373 0,-90.312c24.939,-24.939 65.373,-24.939 90.312,0c24.939,24.939 24.939,65.373 0,90.312c-24.939,24.938 -65.373,24.938 -90.312,0" style="fill:#fff;fill-rule:nonzero;"/><path d="M1144.38,891.504l-282.977,-282.977c-16.626,-16.626 -16.626,-43.582 0,-60.208l138.478,-138.478c16.626,-16.626 16.626,-43.582 0,-60.208l-30.104,-30.104c-16.626,-16.626 -43.582,-16.626 -60.208,0l-168.582,168.582l-60.208,60.208c-16.626,16.626 -16.626,43.582 0,60.208l60.208,60.208l313.081,313.082c16.626,16.625 43.582,16.625 60.208,0l30.104,-30.105c16.626,-16.626 16.626,-43.582 0,-60.208" style="fill:#fff;fill-rule:nonzero;"/><path d="M533.268,984.826c24.939,-24.938 65.373,-24.938 90.312,0c24.939,24.939 24.939,65.373 0,90.313c-24.939,24.938 -65.373,24.938 -90.312,0c-24.939,-24.94 -24.939,-65.374 0,-90.313" style="fill:#fff;fill-rule:nonzero;"/><path d="M265.343,1144.38l282.976,-282.977c16.627,-16.626 43.582,-16.626 60.208,0l138.479,138.479c16.625,16.625 43.582,16.625 60.207,0l30.105,-30.105c16.625,-16.626 16.625,-43.582 0,-60.208l-168.582,-168.582l-60.209,-60.208c-16.626,-16.626 -43.582,-16.626 -60.208,0l-60.208,60.208l-313.081,313.081c-16.626,16.626 -16.626,43.583 0,60.208l30.104,30.104c16.626,16.626 43.582,16.626 60.208,0" style="fill:#fff;fill-rule:nonzero;"/></g></g></svg>