<?xml version="1.0" encoding="UTF-8" standalone="no"?><!DOCTYPE svg PUBLIC "-//W3C//DTD SVG 1.1//EN" "http://www.w3.org/Graphics/SVG/1.1/DTD/svg11.dtd"><svg width="100%" height="100%" viewBox="0 0 104 30" version="1.1" xmlns="http://www.w3.org/2000/svg" xmlns:xlink="http://www.w3.org/1999/xlink" xml:space="preserve" style="fill-rule:evenodd;clip-rule:evenodd;stroke-miterlimit:10;"><g><path d="M100.186,30l-94.853,0c-2.085,0 -3.794,-1.688 -3.794,-3.75l0,-22.499c0,-2.063 1.709,-3.751 3.794,-3.751l94.853,0c2.085,0 3.794,1.688 3.794,3.751l0,22.499c0,2.062 -1.709,3.75 -3.794,3.75" style="fill:#000;fill-rule:nonzero;"/><path d="M100.186,0l-94.853,0c-2.085,0 -3.794,1.688 -3.794,3.751l0,22.499c0,2.062 1.709,3.75 3.794,3.75l94.853,0c2.085,0 3.794,-1.688 3.794,-3.75l0,-22.499c0,-2.063 -1.709,-3.751 -3.794,-3.751M100.186,0.602c1.756,0 3.186,1.412 3.186,3.149l0,22.499c0,1.736 -1.43,3.149 -3.186,3.149l-94.853,0c-1.756,0 -3.185,-1.413 -3.185,-3.149l0,-22.499c0,-1.737 1.429,-3.149 3.185,-3.149l94.853,0" style="fill:#a6a6a6;fill-rule:nonzero;"/><path d="M37.521,7.684c0,0.626 -0.19,1.127 -0.563,1.501c-0.431,0.444 -0.99,0.667 -1.676,0.667c-0.655,0 -1.215,-0.227 -1.674,-0.674c-0.46,-0.454 -0.69,-1.011 -0.69,-1.677c0,-0.667 0.23,-1.223 0.69,-1.673c0.459,-0.452 1.019,-0.678 1.674,-0.678c0.327,0 0.638,0.066 0.935,0.19c0.296,0.124 0.537,0.293 0.711,0.501l-0.396,0.396c-0.305,-0.356 -0.719,-0.531 -1.25,-0.531c-0.478,0 -0.892,0.166 -1.244,0.499c-0.349,0.333 -0.523,0.765 -0.523,1.296c0,0.531 0.174,0.966 0.523,1.3c0.352,0.329 0.766,0.498 1.244,0.498c0.508,0 0.935,-0.169 1.271,-0.502c0.222,-0.22 0.348,-0.524 0.382,-0.912l-1.653,0l0,-0.541l2.205,0c0.026,0.116 0.034,0.23 0.034,0.34" style="fill:#fff;fill-rule:nonzero;"/><path d="M37.521,7.684c0,0.626 -0.19,1.127 -0.563,1.501c-0.431,0.444 -0.99,0.667 -1.676,0.667c-0.655,0 -1.215,-0.227 -1.674,-0.674c-0.46,-0.454 -0.69,-1.011 -0.69,-1.677c0,-0.667 0.23,-1.223 0.69,-1.673c0.459,-0.452 1.019,-0.678 1.674,-0.678c0.327,0 0.638,0.066 0.935,0.19c0.296,0.124 0.537,0.293 0.711,0.501l-0.396,0.396c-0.305,-0.356 -0.719,-0.531 -1.25,-0.531c-0.478,0 -0.892,0.166 -1.244,0.499c-0.349,0.333 -0.523,0.765 -0.523,1.296c0,0.531 0.174,0.966 0.523,1.3c0.352,0.329 0.766,0.498 1.244,0.498c0.508,0 0.935,-0.169 1.271,-0.502c0.222,-0.22 0.348,-0.524 0.382,-0.912l-1.653,0l0,-0.541l2.205,0c0.026,0.116 0.034,0.23 0.034,0.34Z" style="fill:none;stroke-width:0.03px;stroke:#fff;"/><path d="M41.018,5.805l-2.071,0l0,1.425l1.868,0l0,0.542l-1.868,0l0,1.425l2.071,0l0,0.552l-2.656,0l0,-4.496l2.656,0l0,0.552Z" style="fill:#fff;fill-rule:nonzero;stroke-width:0.03px;stroke:#fff;"/><path d="M43.486,9.749l-0.586,0l0,-3.944l-1.27,0l0,-0.552l3.127,0l0,0.552l-1.271,0l0,3.944Z" style="fill:#fff;fill-rule:nonzero;stroke-width:0.03px;stroke:#fff;"/><rect x="47.02" y="5.253" width="0.585" height="4.496" style="fill:#fff;fill-rule:nonzero;stroke-width:0.03px;stroke:#fff;"/><path d="M50.2,9.749l-0.581,0l0,-3.944l-1.275,0l0,-0.552l3.131,0l0,0.552l-1.275,0l0,3.944Z" style="fill:#fff;fill-rule:nonzero;stroke-width:0.03px;stroke:#fff;"/><path d="M54.49,8.793c0.338,0.337 0.748,0.506 1.237,0.506c0.486,0 0.901,-0.169 1.234,-0.506c0.337,-0.336 0.508,-0.769 0.508,-1.292c0,-0.524 -0.171,-0.957 -0.508,-1.293c-0.333,-0.337 -0.748,-0.506 -1.234,-0.506c-0.489,0 -0.899,0.169 -1.237,0.506c-0.337,0.336 -0.508,0.769 -0.508,1.293c0,0.523 0.171,0.956 0.508,1.292M57.395,9.17c-0.448,0.455 -1.004,0.682 -1.668,0.682c-0.666,0 -1.222,-0.227 -1.671,-0.682c-0.447,-0.454 -0.67,-1.011 -0.67,-1.669c0,-0.659 0.223,-1.216 0.67,-1.67c0.449,-0.455 1.005,-0.682 1.671,-0.682c0.66,0 1.216,0.227 1.665,0.686c0.451,0.457 0.674,1.01 0.674,1.666c0,0.658 -0.223,1.215 -0.671,1.669" style="fill:#fff;fill-rule:nonzero;"/><path d="M54.49,8.793c0.338,0.337 0.748,0.506 1.237,0.506c0.486,0 0.901,-0.169 1.234,-0.506c0.337,-0.336 0.508,-0.769 0.508,-1.292c0,-0.524 -0.171,-0.957 -0.508,-1.293c-0.333,-0.337 -0.748,-0.506 -1.234,-0.506c-0.489,0 -0.899,0.169 -1.237,0.506c-0.337,0.336 -0.508,0.769 -0.508,1.293c0,0.523 0.171,0.956 0.508,1.292ZM57.395,9.17c-0.448,0.455 -1.004,0.682 -1.668,0.682c-0.666,0 -1.222,-0.227 -1.671,-0.682c-0.447,-0.454 -0.67,-1.011 -0.67,-1.669c0,-0.659 0.223,-1.216 0.67,-1.67c0.449,-0.455 1.005,-0.682 1.671,-0.682c0.66,0 1.216,0.227 1.665,0.686c0.451,0.457 0.674,1.01 0.674,1.666c0,0.658 -0.223,1.215 -0.671,1.669Z" style="fill:none;stroke-width:0.03px;stroke:#fff;"/><path d="M58.888,9.749l0,-4.496l0.712,0l2.212,3.496l0.025,0l-0.025,-0.864l0,-2.632l0.584,0l0,4.496l-0.61,0l-2.316,-3.67l-0.026,0l0.026,0.868l0,2.802l-0.582,0Z" style="fill:#fff;fill-rule:nonzero;stroke-width:0.03px;stroke:#fff;"/><path d="M82.683,22.501l1.419,0l0,-9.376l-1.419,0l0,9.376ZM95.439,16.502l-1.626,4.064l-0.049,0l-1.682,-4.064l-1.526,0l2.527,5.68l-1.441,3.16l1.478,0l3.894,-8.84l-1.575,0ZM87.406,21.434c-0.462,0 -1.108,-0.226 -1.108,-0.793c0,-0.727 0.805,-1.004 1.501,-1.004c0.623,0 0.915,0.134 1.294,0.314c-0.111,0.868 -0.868,1.483 -1.687,1.483M87.577,16.297c-1.022,0 -2.086,0.446 -2.523,1.435l1.256,0.521c0.27,-0.521 0.767,-0.69 1.292,-0.69c0.735,0 1.48,0.436 1.491,1.206l0,0.099c-0.256,-0.146 -0.805,-0.363 -1.479,-0.363c-1.353,0 -2.731,0.735 -2.731,2.109c0,1.257 1.109,2.066 2.353,2.066c0.953,0 1.478,-0.426 1.809,-0.919l0.048,0l0,0.724l1.367,0l0,-3.595c0,-1.664 -1.256,-2.593 -2.883,-2.593M78.829,17.644l-2.015,0l0,-3.214l2.015,0c1.056,0 1.659,0.867 1.659,1.606c0,0.726 -0.603,1.608 -1.659,1.608M78.792,13.125l-3.394,0l0,9.376l1.416,0l0,-3.553l1.978,0c1.572,0 3.113,-1.124 3.113,-2.912c0,-1.786 -1.545,-2.911 -3.113,-2.911M60.292,21.438c-0.978,0 -1.797,-0.808 -1.797,-1.922c0,-1.125 0.819,-1.945 1.797,-1.945c0.964,0 1.724,0.82 1.724,1.945c0,1.114 -0.76,1.922 -1.724,1.922M61.915,17.025l-0.048,0c-0.319,-0.373 -0.926,-0.71 -1.697,-0.71c-1.616,0 -3.093,1.403 -3.093,3.201c0,1.787 1.477,3.178 3.093,3.178c0.771,0 1.378,-0.34 1.697,-0.724l0.048,0l0,0.458c0,1.219 -0.659,1.874 -1.722,1.874c-0.868,0 -1.406,-0.619 -1.627,-1.139l-1.234,0.509c0.355,0.846 1.297,1.886 2.861,1.886c1.663,0 3.067,-0.967 3.067,-3.322l0,-5.727l-1.345,0l0,0.516ZM64.239,22.501l1.42,0l0,-9.376l-1.42,0l0,9.376ZM67.747,19.406c-0.037,-1.23 0.967,-1.86 1.686,-1.86c0.563,0 1.041,0.278 1.2,0.677l-2.886,1.183ZM72.149,18.344c-0.267,-0.714 -1.089,-2.029 -2.765,-2.029c-1.66,0 -3.041,1.292 -3.041,3.19c0,1.787 1.367,3.189 3.201,3.189c1.482,0 2.338,-0.893 2.69,-1.413l-1.1,-0.724c-0.368,0.529 -0.868,0.881 -1.59,0.881c-0.718,0 -1.234,-0.325 -1.563,-0.966l4.316,-1.765l-0.149,-0.363l0.001,0ZM37.768,17.292l0,1.356l3.275,0c-0.096,0.758 -0.352,1.315 -0.744,1.702c-0.478,0.469 -1.223,0.99 -2.531,0.99c-2.016,0 -3.594,-1.608 -3.594,-3.6c0,-1.993 1.578,-3.6 3.594,-3.6c1.09,0 1.883,0.42 2.468,0.966l0.967,-0.955c-0.819,-0.772 -1.908,-1.366 -3.435,-1.366c-2.764,0 -5.086,2.223 -5.086,4.955c0,2.732 2.322,4.954 5.086,4.954c1.494,0 2.616,-0.483 3.499,-1.391c0.903,-0.893 1.185,-2.15 1.185,-3.164c0,-0.315 -0.027,-0.605 -0.074,-0.847l-4.61,0ZM46.176,21.438c-0.979,0 -1.823,-0.797 -1.823,-1.933c0,-1.151 0.844,-1.934 1.823,-1.934c0.978,0 1.819,0.783 1.819,1.934c0,1.136 -0.841,1.933 -1.819,1.933M46.176,16.315c-1.786,0 -3.238,1.34 -3.238,3.19c0,1.835 1.452,3.189 3.238,3.189c1.785,0 3.238,-1.354 3.238,-3.189c0,-1.85 -1.453,-3.19 -3.238,-3.19M53.241,21.438c-0.978,0 -1.819,-0.797 -1.819,-1.933c0,-1.151 0.841,-1.934 1.819,-1.934c0.978,0 1.823,0.783 1.823,1.934c0,1.136 -0.845,1.933 -1.823,1.933M53.241,16.315c-1.782,0 -3.238,1.34 -3.238,3.19c0,1.835 1.456,3.189 3.238,3.189c1.786,0 3.243,-1.354 3.243,-3.189c0,-1.85 -1.457,-3.19 -3.243,-3.19" style="fill:#fff;fill-rule:nonzero;"/><clipPath id="_clip1"><path d="M9.458,5.655c-0.223,0.23 -0.352,0.589 -0.352,1.054l0,16.586c0,0.464 0.129,0.824 0.352,1.056l0.055,0.049l9.403,-9.29l0,-0.219l-9.403,-9.29l-0.055,0.054Z"/></clipPath><g clip-path="url(#_clip1)"><path d="M19.027,15.001l-9.512,-9.402l-9.515,9.404l9.512,9.401l9.515,-9.403Z" style="fill:url(#_Linear2);fill-rule:nonzero;"/></g><path d="M18.916,14.891l0,0.219l3.132,3.098l0.073,-0.04l3.713,-2.084c1.059,-0.596 1.059,-1.571 0,-2.164l-3.713,-2.087l-0.07,-0.041l-3.135,3.099Z" style="fill:url(#_Linear3);fill-rule:nonzero;"/><clipPath id="_clip4"><path d="M9.458,24.351c0.351,0.364 0.926,0.409 1.578,0.043l11.085,-6.226l-3.205,-3.167l-9.458,9.35Z"/></clipPath><g clip-path="url(#_clip4)"><path d="M22.121,18.168l-3.204,-3.167l-9.468,9.357l3.204,3.168l9.468,-9.358Z" style="fill:url(#_Linear5);fill-rule:nonzero;"/></g><clipPath id="_clip6"><path d="M9.458,5.655l9.458,9.346l3.205,-3.168l-11.085,-6.227c-0.306,-0.169 -0.594,-0.249 -0.851,-0.249c-0.291,0 -0.54,0.103 -0.727,0.298Z"/></clipPath><g clip-path="url(#_clip6)"><path d="M18.916,15.002l3.206,-3.169l-9.463,-9.352l-3.206,3.169l9.463,9.352Z" style="fill:url(#_Linear7);fill-rule:nonzero;"/></g></g><defs><linearGradient id="_Linear2" x1="0" y1="0" x2="1" y2="0" gradientUnits="userSpaceOnUse" gradientTransform="matrix(-12.7352,-12.5866,-12.7352,12.5866,18.0815,23.469)"><stop offset="0%" style="stop-color:#00a0ff;stop-opacity:1"/><stop offset="100%" style="stop-color:#00e3ff;stop-opacity:1"/></linearGradient><linearGradient id="_Linear3" x1="0" y1="0" x2="1" y2="0" gradientUnits="userSpaceOnUse" gradientTransform="matrix(-18.3608,0,0,18.1465,27.2149,15.0003)"><stop offset="0%" style="stop-color:#ffe000;stop-opacity:1"/><stop offset="100%" style="stop-color:#ff9c00;stop-opacity:1"/></linearGradient><linearGradient id="_Linear5" x1="0" y1="0" x2="1" y2="0" gradientUnits="userSpaceOnUse" gradientTransform="matrix(-17.2651,-17.0636,-17.2651,17.0636,14.0477,19.5375)"><stop offset="0%" style="stop-color:#ff3a44;stop-opacity:1"/><stop offset="100%" style="stop-color:#c31162;stop-opacity:1"/></linearGradient><linearGradient id="_Linear7" x1="0" y1="0" x2="1" y2="0" gradientUnits="userSpaceOnUse" gradientTransform="matrix(7.71041,-7.62034,-7.71033,-7.62042,0.748185,23.6098)"><stop offset="0%" style="stop-color:#32a071;stop-opacity:1"/><stop offset="100%" style="stop-color:#00f076;stop-opacity:1"/></linearGradient></defs></svg>