<?xml version="1.0" encoding="UTF-8" standalone="no"?><!DOCTYPE svg PUBLIC "-//W3C//DTD SVG 1.1//EN" "http://www.w3.org/Graphics/SVG/1.1/DTD/svg11.dtd"><svg width="100%" height="100%" viewBox="0 0 1018 296" version="1.1" xmlns="http://www.w3.org/2000/svg" xmlns:xlink="http://www.w3.org/1999/xlink" xml:space="preserve" style="fill-rule:evenodd;clip-rule:evenodd;stroke-linejoin:round;stroke-miterlimit:1.41421;"><g id="g108"><g id="g46"><g id="g14"><circle id="circle6" cx="32.425" cy="147.55" r="16.3" style="fill:#fff;"/><path id="path10" d="M3.225,67.65l72.2,72.2c4.2,4.2 4.2,11.1 0,15.4l-35.3,35.3c-4.2,4.2 -4.2,11.1 0,15.4l7.7,7.7c4.2,4.2 11.1,4.2 15.4,0l43,-43l15.4,-15.4c4.2,-4.2 4.2,-11.1 0,-15.4l-15.4,-15.4l-79.9,-79.9c-4.2,-4.2 -11.1,-4.2 -15.4,0l-7.7,7.7c-4.3,4.3 -4.3,11.2 0,15.4l0,0Z" style="fill:#fff;fill-rule:nonzero;"/></g><g id="g24"><circle id="circle16" cx="147.625" cy="32.35" r="16.3" style="fill:#fff;"/><path id="path20" d="M227.525,3.15l-72.2,72.2c-4.2,4.2 -11.1,4.2 -15.4,0l-35.3,-35.3c-4.2,-4.2 -11.1,-4.2 -15.4,0l-7.7,7.7c-4.2,4.2 -4.2,11.1 0,15.4l58.4,58.4c4.2,4.2 11.1,4.2 15.4,0l15.4,-15.4l79.9,-79.9c4.2,-4.2 4.2,-11.1 0,-15.4l-7.7,-7.7c-4.3,-4.2 -11.2,-4.2 -15.4,0l0,0Z" style="fill:#fff;fill-rule:nonzero;"/></g><g id="g34"><circle id="circle26" cx="262.825" cy="147.55" r="16.3" style="fill:#fff;"/><path id="path30" d="M292.025,227.45l-72.2,-72.2c-4.2,-4.2 -4.2,-11.1 0,-15.4l35.3,-35.3c4.2,-4.2 4.2,-11.1 0,-15.4l-7.7,-7.7c-4.2,-4.2 -11.1,-4.2 -15.4,0l-43,43l-15.4,15.4c-4.2,4.2 -4.2,11.1 0,15.4l95.3,95.3c4.2,4.2 11.1,4.2 15.4,0l7.7,-7.7c4.2,-4.3 4.2,-11.2 0,-15.4l0,0Z" style="fill:#fff;fill-rule:nonzero;"/></g><g id="g44"><circle id="circle36" cx="147.625" cy="262.75" r="16.3" style="fill:#fff;"/><path id="path40" d="M67.725,291.95l72.2,-72.2c4.2,-4.2 11.1,-4.2 15.4,0l35.3,35.3c4.2,4.2 11.1,4.2 15.4,0l7.7,-7.7c4.2,-4.2 4.2,-11.1 0,-15.4l-43,-43l-15.4,-15.4c-4.2,-4.2 -11.1,-4.2 -15.4,0l-15.4,15.4l-79.9,79.9c-4.2,4.2 -4.2,11.1 0,15.4l7.7,7.7c4.3,4.3 11.2,4.3 15.4,0l0,0Z" style="fill:#fff;fill-rule:nonzero;"/></g></g><g id="g80"><path id="path50" d="M398.525,250.65l0,-34.5l14.3,0c3.6,0 6.5,0.9 8.5,2.6c2,1.7 3,4.2 3,7.2c0,3 -1,5.4 -3.1,7.2c-2,1.8 -4.9,2.7 -8.5,2.7l-9.3,0l0,14.8l-4.9,0ZM403.525,231.85l8.8,0c2.4,0 4.2,-0.5 5.4,-1.5c1.2,-1 1.8,-2.5 1.8,-4.3c0,-1.8 -0.6,-3.3 -1.8,-4.3c-1.2,-1 -3,-1.5 -5.4,-1.5l-8.8,0l0,11.6Z" style="fill:#fff;fill-rule:nonzero;"/><path id="path52" d="M446.525,250.95c-2.4,0 -4.5,-0.5 -6.3,-1.5c-1.8,-1 -3.2,-2.5 -4.1,-4.4c-1,-1.9 -1.5,-4.1 -1.5,-6.8c0,-2.6 0.5,-4.8 1.5,-6.7c1,-1.9 2.4,-3.4 4.1,-4.4c1.8,-1 3.9,-1.6 6.3,-1.6c2.4,0 4.5,0.5 6.3,1.6c1.8,1 3.2,2.5 4.2,4.4c1,1.9 1.5,4.1 1.5,6.7c0,2.6 -0.5,4.9 -1.5,6.8c-1,1.9 -2.4,3.4 -4.2,4.4c-1.8,1 -3.9,1.5 -6.3,1.5ZM446.525,247.05c2.2,0 3.9,-0.7 5.1,-2.2c1.2,-1.5 1.8,-3.7 1.8,-6.6c0,-2.8 -0.6,-5 -1.8,-6.5c-1.2,-1.5 -2.9,-2.3 -5.1,-2.3c-2.2,0 -3.9,0.8 -5.2,2.3c-1.2,1.5 -1.9,3.7 -1.9,6.5c0,2.9 0.6,5.1 1.8,6.6c1.3,1.5 3.1,2.2 5.3,2.2l0,0Z" style="fill:#fff;fill-rule:nonzero;"/><path id="path54" d="M477.425,250.65l-9.3,-24.4l5.1,0l7.2,20.3l-1.2,0l7.4,-20.3l3.9,0l7.3,20.3l-1.2,0l7.3,-20.3l4.8,0l-9.3,24.4l-4.5,0l-7.8,-20.9l2.5,0l-7.7,20.9l-4.5,0Z" style="fill:#fff;fill-rule:nonzero;"/><path id="path56" d="M540.225,247.85c-1.1,1 -2.5,1.7 -4.2,2.3c-1.7,0.6 -3.4,0.8 -5.1,0.8c-2.6,0 -4.8,-0.5 -6.7,-1.5c-1.9,-1 -3.3,-2.5 -4.3,-4.4c-1,-1.9 -1.5,-4.2 -1.5,-6.8c0,-2.5 0.5,-4.7 1.5,-6.6c1,-1.9 2.3,-3.4 4.1,-4.5c1.7,-1.1 3.8,-1.6 6.1,-1.6c2.2,0 4.1,0.5 5.7,1.5c1.6,1 2.8,2.3 3.7,4.1c0.9,1.8 1.3,3.9 1.3,6.5l0,0.8l-18,0l0,-2.9l15.1,0l-1.4,1.7c0,-2.6 -0.5,-4.6 -1.6,-6c-1.1,-1.4 -2.6,-2.1 -4.7,-2.1c-2.2,0 -3.9,0.8 -5.1,2.3c-1.2,1.5 -1.8,3.7 -1.8,6.4c0,3.1 0.7,5.4 2,6.9c1.3,1.5 3.3,2.3 5.8,2.3c1.4,0 2.7,-0.2 4,-0.7c1.3,-0.5 2.5,-1.1 3.7,-2.1l1.4,3.6Z" style="fill:#fff;fill-rule:nonzero;"/><path id="path58" d="M553.425,250.65l0,-17.5c0,-1.1 0,-2.3 -0.1,-3.4c0,-1.2 -0.2,-2.3 -0.3,-3.4l4.7,0l0.6,6.2l-0.6,-0.2c0.4,-2.1 1.4,-3.7 2.9,-4.8c1.5,-1.1 3.2,-1.6 5.1,-1.6c0.5,0 0.9,0 1.3,0.1c0.4,0.1 0.7,0.1 1.1,0.2l-0.1,4.5c-0.9,-0.3 -1.8,-0.5 -2.9,-0.5c-1.6,0 -2.9,0.3 -3.8,1c-1,0.7 -1.7,1.5 -2.2,2.6c-0.5,1.1 -0.7,2.2 -0.7,3.5l0,13.6l-5,0l0,-0.3Z" style="fill:#fff;fill-rule:nonzero;"/><path id="path60" d="M598.125,247.85c-1.1,1 -2.5,1.7 -4.2,2.3c-1.7,0.6 -3.4,0.8 -5.1,0.8c-2.6,0 -4.8,-0.5 -6.7,-1.5c-1.9,-1 -3.3,-2.5 -4.3,-4.4c-1,-1.9 -1.5,-4.2 -1.5,-6.8c0,-2.5 0.5,-4.7 1.5,-6.6c1,-1.9 2.3,-3.4 4.1,-4.5c1.7,-1.1 3.8,-1.6 6.1,-1.6c2.2,0 4.1,0.5 5.7,1.5c1.6,1 2.8,2.3 3.7,4.1c0.9,1.8 1.3,3.9 1.3,6.5l0,0.8l-18,0l0,-2.9l15.1,0l-1.4,1.7c0,-2.6 -0.5,-4.6 -1.6,-6c-1.1,-1.4 -2.6,-2.1 -4.7,-2.1c-2.2,0 -3.9,0.8 -5.1,2.3c-1.2,1.5 -1.8,3.7 -1.8,6.4c0,3.1 0.7,5.4 2,6.9c1.3,1.5 3.3,2.3 5.8,2.3c1.4,0 2.7,-0.2 4,-0.7c1.3,-0.5 2.5,-1.1 3.7,-2.1l1.4,3.6Z" style="fill:#fff;fill-rule:nonzero;"/><path id="path62" d="M633.725,250.65l-4.8,0l0,-6.4l0.6,0.7c-0.5,1.9 -1.6,3.4 -3.1,4.5c-1.5,1 -3.4,1.6 -5.5,1.6c-2.1,0 -4,-0.5 -5.6,-1.6c-1.6,-1 -2.9,-2.5 -3.8,-4.5c-0.9,-1.9 -1.4,-4.2 -1.4,-6.8c0,-2.6 0.4,-4.8 1.3,-6.6c0.9,-1.9 2.1,-3.3 3.8,-4.4c1.6,-1 3.5,-1.6 5.7,-1.6c2.2,0 4,0.5 5.5,1.6c1.5,1.1 2.6,2.6 3.1,4.5l-0.6,0.6l0,-17.3l4.9,0l0,35.7l-0.1,0ZM621.925,247.05c2.2,0 3.9,-0.8 5.1,-2.3c1.2,-1.5 1.8,-3.7 1.8,-6.5c0,-2.7 -0.6,-4.9 -1.8,-6.4c-1.2,-1.5 -2.9,-2.3 -5.1,-2.3c-2.2,0 -4,0.8 -5.2,2.3c-1.2,1.5 -1.9,3.6 -1.9,6.4c0,2.8 0.6,5 1.9,6.6c1.3,1.5 3,2.2 5.2,2.2l0,0Z" style="fill:#fff;fill-rule:nonzero;"/><path id="path64" d="M667.625,250.65l0,-35.7l4.9,0l0,17.3l-0.5,-0.6c0.5,-1.9 1.6,-3.4 3.1,-4.5c1.5,-1.1 3.4,-1.6 5.5,-1.6c2.2,0 4.1,0.5 5.7,1.6c1.6,1 2.9,2.5 3.8,4.4c0.9,1.9 1.4,4.1 1.4,6.6c0,2.6 -0.5,4.8 -1.4,6.8c-0.9,1.9 -2.2,3.4 -3.8,4.5c-1.6,1 -3.5,1.6 -5.6,1.6c-2.1,0 -4,-0.5 -5.5,-1.6c-1.5,-1 -2.6,-2.5 -3.1,-4.5l0.5,-0.7l0,6.4l-5,0ZM679.425,247.05c2.2,0 3.9,-0.8 5.1,-2.3c1.2,-1.6 1.8,-3.7 1.8,-6.6c0,-2.7 -0.6,-4.9 -1.8,-6.4c-1.2,-1.5 -2.9,-2.3 -5.1,-2.3c-2.3,0 -4,0.8 -5.2,2.3c-1.2,1.5 -1.8,3.7 -1.8,6.4c0,2.8 0.6,5 1.8,6.5c1.3,1.7 3,2.4 5.2,2.4Z" style="fill:#fff;fill-rule:nonzero;"/><path id="path66" d="M711.525,252.05l-11.1,-25.8l5.1,0l8.3,20.4l-2.3,5.4ZM702.825,261.65l-1.1,-3.8c1.5,-0.3 2.7,-0.7 3.8,-1.2c1,-0.5 1.9,-1.1 2.5,-1.8c0.7,-0.7 1.3,-1.6 1.7,-2.8l1.6,-3.8l1.2,-1.7l8.4,-20.4l4.9,0l-11.4,26.4c-0.9,2.1 -1.9,3.7 -3.1,4.9c-1.1,1.2 -2.4,2.1 -3.9,2.8c-1.4,0.7 -2.9,1.1 -4.6,1.4Z" style="fill:#fff;fill-rule:nonzero;"/><path id="path68" d="M758.625,250.65l-5.1,0l15.3,-34.5l4.2,0l15.4,34.5l-5,0l-13.1,-30.7l1.6,0l-13.3,30.7ZM760.125,242.05l1.8,-4l17.9,0l1.8,4l-21.5,0Z" style="fill:#fff;fill-rule:nonzero;"/><path id="path70" d="M805.525,250.65l-10.5,-24.4l5.1,0l8.3,20.4l-1.3,0l8.4,-20.4l4.9,0l-10.6,24.4l-4.3,0Z" style="fill:#fff;fill-rule:nonzero;"/><path id="path72" d="M830.925,215.55l5.7,0l0,5.1l-5.7,0l0,-5.1ZM831.225,250.65l0,-24.5l4.9,0l0,24.4l-4.9,0l0,0.1Z" style="fill:#fff;fill-rule:nonzero;"/><path id="path74" d="M858.625,250.95c-4.3,0 -7.6,-1 -10.1,-3.1l1.5,-3.5c1.3,1 2.7,1.7 4.1,2.2c1.4,0.5 3,0.7 4.7,0.7c1.7,0 3,-0.3 3.8,-0.8c0.8,-0.5 1.3,-1.4 1.3,-2.4c0,-0.9 -0.3,-1.6 -0.9,-2.1c-0.6,-0.5 -1.6,-0.9 -3,-1.3l-4.1,-1c-2.1,-0.5 -3.8,-1.3 -4.9,-2.4c-1.1,-1.1 -1.7,-2.6 -1.7,-4.3c0,-1.5 0.4,-2.7 1.2,-3.8c0.8,-1.1 1.9,-2 3.4,-2.6c1.5,-0.6 3.1,-0.9 5.1,-0.9c1.7,0 3.4,0.3 4.9,0.8c1.5,0.5 2.9,1.3 4,2.3l-1.5,3.4c-1.2,-0.9 -2.4,-1.6 -3.7,-2.1c-1.2,-0.5 -2.5,-0.7 -3.8,-0.7c-1.6,0 -2.8,0.3 -3.7,0.9c-0.9,0.6 -1.3,1.4 -1.3,2.5c0,0.9 0.3,1.6 0.8,2.1c0.5,0.5 1.4,0.9 2.7,1.2l4.1,1c2.4,0.5 4.1,1.3 5.2,2.5c1.1,1.1 1.6,2.6 1.6,4.4c0,2.2 -0.9,3.9 -2.6,5.2c-1.6,1.2 -4,1.8 -7.1,1.8l0,0Z" style="fill:#fff;fill-rule:nonzero;"/><path id="path76" d="M881.325,250.65l0,-35.7l4.9,0l0,16.2l-0.7,0.3c0.7,-1.9 1.8,-3.4 3.4,-4.3c1.6,-0.9 3.4,-1.5 5.4,-1.5c5.8,0 8.8,3.3 8.8,9.8l0,15.2l-4.9,0l0,-15c0,-2.1 -0.4,-3.6 -1.3,-4.6c-0.8,-1 -2.1,-1.5 -3.9,-1.5c-2.1,0 -3.8,0.6 -5,1.9c-1.2,1.3 -1.9,3 -1.9,5.2l0,13.9l-4.8,0l0,0.1Z" style="fill:#fff;fill-rule:nonzero;"/><path id="path78" d="M926.425,250.95c-2.2,0 -4.1,-0.5 -5.7,-1.5c-1.6,-1 -2.9,-2.5 -3.8,-4.4c-0.9,-1.9 -1.3,-4.1 -1.3,-6.7c0,-2.6 0.5,-4.8 1.4,-6.7c0.9,-1.9 2.2,-3.4 3.8,-4.5c1.6,-1.1 3.5,-1.6 5.6,-1.6c2.2,0 4,0.5 5.5,1.6c1.5,1 2.6,2.5 3.1,4.5l-0.6,0.4l0,-5.9l4.8,0l0,24.4l-4.8,0l0,-6l0.6,0.2c-0.5,1.9 -1.6,3.4 -3.1,4.5c-1.5,1.2 -3.3,1.7 -5.5,1.7l0,0ZM927.625,247.05c2.2,0 3.9,-0.8 5.1,-2.3c1.2,-1.5 1.8,-3.7 1.8,-6.5c0,-2.8 -0.6,-5 -1.8,-6.5c-1.2,-1.5 -2.9,-2.3 -5.1,-2.3c-2.2,0 -4,0.8 -5.2,2.4c-1.2,1.6 -1.9,3.7 -1.9,6.5c0,2.8 0.6,4.9 1.9,6.4c1.2,1.6 2.9,2.3 5.2,2.3Z" style="fill:#fff;fill-rule:nonzero;"/></g><g id="g106"><path id="path82" d="M456.825,56.95l0,132l-44.5,0l0,-48.7l-41.1,0l0,48.7l-44.5,0l0,-132l44.5,0l0,46.8l41.1,0l0,-46.8l44.5,0Z" style="fill:#fff;fill-rule:nonzero;"/><path id="path86" d="M472.625,55.75c0,-12.3 10,-21.7 25.7,-21.7c15.7,0 25.7,8.7 25.7,20.9c0,13 -10,22.4 -25.7,22.4c-15.7,0.1 -25.7,-9.3 -25.7,-21.6l0,0ZM476.925,85.75l42.6,0l0,103.2l-42.6,0l0,-103.2Z" style="fill:#fff;fill-rule:nonzero;"/><path id="path90" d="M596.325,155.75l-12.1,0l0,33.2l-44.5,0l0,-132l63.6,0c36.8,0 60.2,19.2 60.2,49.8c0,19.1 -9.1,33.4 -24.9,41.5l27.7,40.7l-47.5,0l-22.5,-33.2ZM600.525,91.25l-16.2,0l0,30.9l16.2,0c12.3,0 18.1,-5.8 18.1,-15.5c0,-9.5 -5.9,-15.4 -18.1,-15.4Z" style="fill:#fff;fill-rule:nonzero;"/><path id="path94" d="M761.025,146.25l26.1,17.8c-7.9,12.7 -21.1,21 -41.1,24.9c-37.2,7.2 -65.6,-10.5 -71.5,-40.7c-6,-30.7 14.6,-57.2 47.9,-63.7c29.4,-5.7 58.5,7.4 65.1,41.1l-66.7,26.8c4.6,5.6 11.4,7 20.4,5.2c9.4,-1.7 14.1,-5.1 19.8,-11.4l0,0ZM714.225,133.25l31.2,-12.6c-3.4,-5.9 -9.6,-9.1 -17.2,-7.6c-9.5,1.8 -14.9,8.5 -14,20.2Z" style="fill:#fff;fill-rule:nonzero;"/><path id="path98" d="M803.425,56.95l65.1,0c44.1,0 74.5,25.1 74.5,66c0,40.9 -30.4,66 -74.5,66l-65.1,0l0,-132ZM866.625,154.25c18.7,0 31.5,-11.1 31.5,-31.3c0,-20.2 -12.8,-31.3 -31.5,-31.3l-18.7,0l0,62.6l18.7,0Z" style="fill:#fff;fill-rule:nonzero;"/><path id="path102" d="M967.925,52.95l49.7,11.2l-26.1,77.6l-33.1,-7.4l9.5,-81.4ZM944.125,161.65c2.8,-12.3 14.8,-19.5 29.2,-16.3c14.4,3.2 22.2,14.8 19.4,27.2c-2.7,12.1 -14.9,19.9 -29.3,16.6c-14.4,-3.1 -22.1,-15.3 -19.3,-27.5l0,0Z" style="fill:#fff;fill-rule:nonzero;"/></g></g></svg>